# xmcd
#
# Track frame offsets:
#	150
#	11555
#	22532
#	44320
#	56525
#	68525
#	87115
#	97997
#	110010
#	123047
#	149980
#	162632
#	177767
#
# Disc length: 2580 seconds
#
# Revision: 1
# Processed by: cddbd v1.4PL0 Copyright (c) Steve Scherf et al.
# Submitted via: audiograbber 1.81.03
#
DISCID=a10a120d
DTITLE=Various Artist - Eddie Bo's Funky Funky New Orleans
DYEAR=1900
DGENRE=Blues
TTITLE0=Chuck Carbo - Can I Be Your Main Squeeze
TTITLE1=Chuck Carbo - Take Care Of Your Homework
TTITLE2=Explosions - Hip Drop Part 1 and 2
TTITLE3=Eddie Bo - Can You Handle It?
TTITLE4=Eddie Bo - Showdown
TTITLE5=Vibrettes - Humpty Bump (parts 1 and 2)
TTITLE6=Eddie Bo - Don't Turn Me Loose
TTITLE7=Eddie Bo - Getting To The Middle
TTITLE8=Eddie Bo  - Getting To The Middle (instrumental)
TTITLE9=Eddie Bo and the Chain Gang - Disco Party (parts 1 and 2)
TTITLE10=The Scram Band feat Smokey Johnson - You've Got What I Want
TTITLE11=The Scram Band - Don't Change Nothin'
TTITLE12=The Scram Band - I'm In A Lovin' Groove
EXTD=
EXTT0=
EXTT1=
EXTT2=
EXTT3=
EXTT4=
EXTT5=
EXTT6=
EXTT7=
EXTT8=
EXTT9=
EXTT10=
EXTT11=
EXTT12=
PLAYORDER=
